<svg width="100" height="100" viewBox="0 0 100 100" fill="none" xmlns="http://www.w3.org/2000/svg">
<path d="M49.3081 76.2535C45.7826 73.5936 41.7179 72.1876 37.5537 72.1876C33.3894 72.1876 29.3247 73.5936 25.7992 76.2535C25.1302 76.7582 24.9564 77.7692 25.4113 78.5119C25.6947 78.9747 26.1552 79.224 26.624 79.224C26.9076 79.224 27.1939 79.1327 27.446 78.9426C33.6806 74.2392 41.4265 74.2392 47.6611 78.9426C48.3302 79.4473 49.2413 79.2546 49.696 78.5121C50.1509 77.7694 49.9771 76.7584 49.3081 76.2535Z" fill="white"/>
<path d="M26.6226 49.3716C25.8136 49.3716 25.1577 50.0995 25.1577 50.9974V52.2287C25.1577 53.1266 25.8136 53.8545 26.6226 53.8545C27.4315 53.8545 28.0874 53.1266 28.0874 52.2287V50.9974C28.0874 50.0995 27.4315 49.3716 26.6226 49.3716Z" fill="white"/>
<path d="M48.3804 49.3716C47.5714 49.3716 46.9155 50.0995 46.9155 50.9974V52.2287C46.9155 53.1266 47.5714 53.8545 48.3804 53.8545C49.1894 53.8545 49.8452 53.1266 49.8452 52.2287V50.9974C49.8452 50.0995 49.1894 49.3716 48.3804 49.3716Z" fill="white"/>
<path d="M98.5352 14.9167C99.3441 14.9167 100 14.1888 100 13.2909V5.27659C100 4.37869 99.3441 3.65075 98.5352 3.65075H93.2168V1.62583C93.2168 0.727939 92.5609 0 91.752 0H77.666C76.857 0 76.2012 0.727939 76.2012 1.62583V2.84434H71.127C70.318 2.84434 69.6621 3.57228 69.6621 4.47017C69.6621 5.36807 70.318 6.09601 71.127 6.09601H76.2012V35.2424C66.4996 37.3371 61.5801 43.1596 61.5801 52.569V63.2193C61.5801 63.4554 61.4982 63.6759 61.3469 63.843C61.2598 63.9395 61.0711 64.1016 60.7852 64.1016C57.5834 64.1016 54.9785 61.2096 54.9785 57.6546V47.219C54.9785 43.8578 52.5139 41.1232 49.4844 41.1232H38.3789C37.2535 41.1232 36.3379 40.1069 36.3379 38.8578V36.159C36.3379 34.9086 37.2535 33.8915 38.3789 33.8915H40.3549C40.36 33.8915 40.3648 33.8923 40.3699 33.8923H43.3432C44.1521 33.8923 44.808 33.1644 44.808 32.2665C44.808 31.3686 44.1521 30.6407 43.3432 30.6407H40.4484C39.5314 30.5548 38.8164 29.6957 38.8164 28.6715V25.6559C38.8164 24.5622 39.6172 23.6723 40.6016 23.6723H43.1564C43.1629 23.6723 43.1689 23.6734 43.1754 23.6734H46.1486C46.9576 23.6734 47.6135 22.9455 47.6135 22.0476C47.6135 21.1497 46.9576 20.4218 46.1486 20.4218H43.4096C43.4031 20.4218 43.3971 20.4207 43.3906 20.4207C42.5785 20.4207 41.918 19.6884 41.918 18.7883V16.1892C41.918 15.2891 42.5785 14.5568 43.3906 14.5568H45.6016C45.6162 14.5573 45.6303 14.5592 45.6451 14.5592H48.6186C49.4275 14.5592 50.0834 13.8313 50.0834 12.9334C50.0834 12.0355 49.4275 11.3076 48.6186 11.3076H46.1353C46.1207 11.3071 46.1066 11.3052 46.0918 11.3052C45.2809 11.3052 44.6211 10.572 44.6211 9.67067V7.73051C44.6211 6.82915 45.2809 6.09601 46.0918 6.09601H65.2012C66.0102 6.09601 66.666 5.36807 66.666 4.47017C66.666 3.57228 66.0102 2.84434 65.2012 2.84434H46.0918C43.6654 2.84434 41.6914 5.03618 41.6914 7.73051V9.67067C41.6914 10.3342 41.8111 10.9672 42.0279 11.5447C40.2654 12.1827 38.9883 14.0238 38.9883 16.1892V16.7253C38.5088 16.7051 38.0293 16.6943 37.5527 16.6943C16.8461 16.6945 0 35.3929 0 58.3763C0 68.704 3.4291 78.6123 9.65566 86.2762C15.8357 93.8827 24.2684 98.6863 33.4002 99.8016C33.4547 99.8084 33.5086 99.8114 33.5623 99.8114C34.2994 99.8114 34.934 99.1953 35.0166 98.3633C35.1051 97.4709 34.5248 96.6677 33.7207 96.5695C16.167 94.4256 2.92969 78.0062 2.92969 58.3763C2.92969 37.1858 18.4615 19.9459 37.5527 19.9459C38.0754 19.9459 38.6018 19.9607 39.1275 19.9867C39.1771 20.2033 39.235 20.4161 39.3098 20.6203C37.3361 21.2455 35.8869 23.2663 35.8869 25.6559V28.6712C35.8869 29.5377 36.0805 30.3602 36.423 31.0848C34.652 31.9298 33.4084 33.886 33.4084 36.1587V38.8576C33.4084 41.8997 35.6383 44.3746 38.3791 44.3746H49.4846C50.8986 44.3746 52.049 45.6506 52.049 47.2187V57.6544C52.049 63.0021 55.9682 67.3531 60.7854 67.3531C61.7801 67.3531 62.7152 66.923 63.4162 66.1447C64.1215 65.3656 64.51 64.3266 64.51 63.2191V52.5688C64.51 49.2077 65.102 45.0197 68.8486 41.9268C71.0283 47.0325 72.1779 52.6813 72.1779 58.3763C72.1779 78.8186 57.7842 95.6746 39.4094 96.7505C38.6016 96.7978 37.9811 97.5632 38.0236 98.4598C38.0648 99.3273 38.7115 100 39.4852 100C39.5111 100 39.5373 99.9993 39.5635 99.9978C59.4945 98.8309 75.1074 80.5485 75.1074 58.3765C75.1074 52.1047 73.8217 45.8821 71.3846 40.2747C72.7199 39.5884 74.3098 39.0044 76.2012 38.5578V39.4076C76.2012 40.3055 76.857 41.0334 77.666 41.0334H91.752C92.5609 41.0334 93.2168 40.3055 93.2168 39.4076V37.3818H98.5352C99.3441 37.3818 100 36.6539 100 35.756V19.8662C100 18.9683 99.3441 18.2403 98.5352 18.2403C97.7262 18.2403 97.0703 18.9683 97.0703 19.8662V34.1301H93.2168V6.90285H97.0703V13.2913C97.0703 14.1888 97.7262 14.9167 98.5352 14.9167ZM90.2871 37.7815H79.1309V3.25167H90.2871V37.7815Z" fill="white"/>
<path d="M84.709 4.194C83.9 4.194 83.2441 4.92194 83.2441 5.81983V6.17925C83.2441 7.07714 83.9 7.80508 84.709 7.80508C85.518 7.80508 86.1738 7.07714 86.1738 6.17925V5.81983C86.1738 4.92194 85.518 4.194 84.709 4.194Z" fill="white"/>
<path d="M84.709 8.26031C83.9 8.26031 83.2441 8.98826 83.2441 9.88615V10.2456C83.2441 11.1435 83.9 11.8714 84.709 11.8714C85.518 11.8714 86.1738 11.1435 86.1738 10.2456V9.88615C86.1738 8.98826 85.518 8.26031 84.709 8.26031Z" fill="white"/>
</svg>
