<svg width="100" height="100" viewBox="0 0 100 100" fill="none" xmlns="http://www.w3.org/2000/svg">
<path d="M52.5844 51.6367C52.112 50.9676 51.1657 50.7939 50.471 51.2488C43.8564 55.5781 35.6385 55.5781 29.0241 51.2488C28.3294 50.7939 27.3829 50.9678 26.9107 51.6367C26.4385 52.3058 26.6188 53.2168 27.3137 53.6717C31.0432 56.1127 35.3428 57.4029 39.7476 57.4029C44.1525 57.4029 48.4521 56.1127 52.1815 53.6717C52.8765 53.2168 53.0568 52.3058 52.5844 51.6367Z" fill="white"/>
<path d="M28.1688 30.0287C27.3286 30.0287 26.6475 30.6846 26.6475 31.4936V32.625C26.6475 33.434 27.3284 34.0898 28.1688 34.0898C29.0089 34.0898 29.6901 33.434 29.6901 32.625V31.4936C29.6901 30.6846 29.0087 30.0287 28.1688 30.0287Z" fill="white"/>
<path d="M51.2156 30.0287C50.3755 30.0287 49.6943 30.6846 49.6943 31.4936V32.625C49.6943 33.434 50.3755 34.0898 51.2156 34.0898C52.0558 34.0898 52.7369 33.434 52.7369 32.625V31.4936C52.7369 30.6846 52.0558 30.0287 51.2156 30.0287Z" fill="white"/>
<path d="M94.7649 59.2812H83.0022C81.489 59.2812 80.2578 58.0949 80.2578 56.6367V47.0488C80.2578 45.5604 79.8736 44.157 79.1987 42.9234C79.392 41.3943 79.4951 39.8336 79.4951 38.2734C79.4951 30.8381 77.2768 23.6268 73.0803 17.4195C72.6221 16.7416 71.6795 16.55 70.9754 16.991C70.2713 17.4324 70.0719 18.3398 70.5304 19.0178C74.4046 24.7482 76.4525 31.4068 76.4525 38.2732C76.4525 38.7959 76.4363 39.3182 76.4125 39.8396C74.8969 38.7879 73.0393 38.1658 71.0326 38.1658C69.9888 38.1658 69.0062 38.5566 68.2606 39.2711C67.5237 39.984 67.1178 40.9295 67.1178 41.9334V51.7205C67.1178 56.2353 65.7831 62.3703 54.6729 64.6346V63.8158C54.6729 63.0068 53.9918 62.351 53.1516 62.351H38.2311C37.3909 62.351 36.7098 63.0068 36.7098 63.8158V65.7068H31.0467C30.2066 65.7068 29.5254 66.3627 29.5254 67.1717V72.2271C13.8382 67.8836 3.0426 54.1781 3.0426 38.2734C3.0426 18.7848 19.5079 2.92969 39.7465 2.92969C50.0496 2.92969 59.9423 7.13926 66.8878 14.4787C67.4539 15.077 68.4162 15.1197 69.0368 14.575C69.6579 14.0301 69.7026 13.1035 69.1368 12.5057C61.6161 4.55801 50.904 0 39.7465 0C17.8303 0 0 17.1693 0 38.2734C0 46.966 3.10853 55.4766 8.75296 62.2371C14.0578 68.591 21.3982 73.1846 29.5254 75.2652V83.9746C29.5254 84.7836 30.2066 85.4395 31.0467 85.4395C31.8869 85.4395 32.568 84.7836 32.568 83.9746V68.6367H36.7098V93.7148H32.568V89.8945C32.568 89.0855 31.8869 88.4297 31.0467 88.4297C30.2066 88.4297 29.5254 89.0855 29.5254 89.8945V95.1797C29.5254 95.9887 30.2066 96.6445 31.0467 96.6445H36.7098V98.5352C36.7098 99.3441 37.3909 100 38.2311 100H53.1516C53.9918 100 54.6729 99.3441 54.6729 98.5352V97.3848H62.5417C63.3819 97.3848 64.063 96.7289 64.063 95.9199C64.063 95.1109 63.3819 94.4551 62.5417 94.4551H54.6729V67.6211C64.9496 65.7016 70.1604 60.3582 70.1604 51.7207V41.9336C70.1604 41.7098 70.2517 41.4982 70.4119 41.343C70.5782 41.1836 70.7987 41.0957 71.0326 41.0957C74.4417 41.0957 77.2152 43.7662 77.2152 47.0488V56.6367C77.2152 59.7104 79.8113 62.2109 83.0022 62.2109H94.7649C95.9738 62.2109 96.9576 63.158 96.9576 64.3223V66.8027C96.9576 67.967 95.9738 68.9141 94.7649 68.9141H92.6712C92.6665 68.9141 92.662 68.9135 92.6574 68.9135H89.5079C88.6677 68.9135 87.9866 69.5693 87.9866 70.3783C87.9866 71.1873 88.6677 71.8432 89.5079 71.8432H92.5762C93.5633 71.923 94.3328 72.7252 94.3328 73.6818V76.4533C94.3328 77.4742 93.471 78.3049 92.4119 78.3049H89.7034C89.6975 78.3049 89.6917 78.3041 89.6858 78.3041H86.5365C85.6963 78.3041 85.0152 78.96 85.0152 79.7689C85.0152 80.5779 85.6963 81.2338 86.5365 81.2338H89.4409C89.4468 81.2338 89.4527 81.2346 89.4586 81.2346C90.3343 81.2346 91.0468 81.9207 91.0468 82.7639V85.1525C91.0468 85.9957 90.3343 86.6818 89.4586 86.6818H87.1209C87.1038 86.6813 87.087 86.6793 87.0697 86.6793H83.9202C83.0801 86.6793 82.3989 87.3352 82.3989 88.1441C82.3989 88.9531 83.0801 89.609 83.9202 89.609H86.5454C86.5624 89.6096 86.5793 89.6115 86.5965 89.6115C87.4722 89.6115 88.1848 90.2984 88.1848 91.1428V92.926C88.1848 93.7691 87.4722 94.4553 86.5965 94.4553H68.6959C67.8557 94.4553 67.1746 95.1111 67.1746 95.9201C67.1746 96.7291 67.8557 97.385 68.6959 97.385H86.5965C89.1499 97.385 91.2274 95.3846 91.2274 92.926V91.1428C91.2274 90.5258 91.0967 89.9377 90.8604 89.4027C92.7308 88.8295 94.0892 87.141 94.0892 85.1525V82.7639C94.0892 82.1613 93.9645 81.5861 93.7383 81.0611C95.8335 80.5008 97.3752 78.6473 97.3752 76.4533V73.6818C97.3752 72.8791 97.1657 72.1182 96.7955 71.4492C98.6765 70.6842 100 68.8895 100 66.8029V64.3225C100 61.5426 97.6515 59.2812 94.7649 59.2812ZM51.6303 97.0703H39.7524V95.1816C39.7524 95.1811 39.7524 95.1805 39.7524 95.1797C39.7524 95.1789 39.7524 95.1785 39.7524 95.1777V67.1738C39.7524 67.1732 39.7524 67.1727 39.7524 67.1719C39.7524 67.1711 39.7524 67.1707 39.7524 67.1699V65.2809H51.6303V97.0703Z" fill="white"/>
<path d="M45.6917 92.8861C44.8515 92.8861 44.1704 93.542 44.1704 94.351V94.6813C44.1704 95.4902 44.8515 96.1461 45.6917 96.1461C46.5319 96.1461 47.213 95.4902 47.213 94.6813V94.351C47.213 93.542 46.5319 92.8861 45.6917 92.8861Z" fill="white"/>
<path d="M45.6917 89.1494C44.8515 89.1494 44.1704 89.8053 44.1704 90.6143V90.9445C44.1704 91.7535 44.8515 92.4094 45.6917 92.4094C46.5319 92.4094 47.213 91.7535 47.213 90.9445V90.6143C47.213 89.8053 46.5319 89.1494 45.6917 89.1494Z" fill="white"/>
</svg>
