<svg width="100" height="100" viewBox="0 0 100 100" fill="none" xmlns="http://www.w3.org/2000/svg">
<path d="M22.5807 38.7097C23.4715 38.7097 24.1936 37.9876 24.1936 37.0968C24.1936 36.206 23.4715 35.4839 22.5807 35.4839C21.6899 35.4839 20.9678 36.206 20.9678 37.0968C20.9678 37.9876 21.6899 38.7097 22.5807 38.7097Z" fill="white"/>
<path d="M32.2579 38.7097C33.1487 38.7097 33.8708 37.9876 33.8708 37.0968C33.8708 36.206 33.1487 35.4839 32.2579 35.4839C31.3671 35.4839 30.645 36.206 30.645 37.0968C30.645 37.9876 31.3671 38.7097 32.2579 38.7097Z" fill="white"/>
<path d="M98.3871 72.5806H46.7742V67.7419C46.7662 64.3275 45.5581 61.0245 43.3612 58.4107C41.1642 55.7969 38.1183 54.0387 34.7561 53.4435L33.871 52.5585V50.3105C35.8638 49.1556 37.382 47.3309 38.1552 45.1613H39.5161C40.5852 45.1602 41.6102 44.735 42.3662 43.9791C43.1222 43.2231 43.5473 42.1981 43.5484 41.129V37.9032C43.5473 36.974 43.2258 36.0736 42.6382 35.3538C42.0506 34.634 41.2327 34.1387 40.3226 33.9516V29.0323C40.3226 25.6101 38.9631 22.3281 36.5433 19.9083C34.1235 17.4885 30.8415 16.129 27.4194 16.129C23.9972 16.129 20.7152 17.4885 18.2954 19.9083C15.8756 22.3281 14.5161 25.6101 14.5161 29.0323V33.9516C13.606 34.1387 12.7881 34.634 12.2005 35.3538C11.6129 36.0736 11.2915 36.974 11.2903 37.9032V41.129C11.2914 42.1981 11.7166 43.2231 12.4725 43.9791C13.2285 44.735 14.2535 45.1602 15.3226 45.1613H16.6835C17.4567 47.3309 18.9749 49.1556 20.9677 50.3105V52.5585L20.0827 53.4435C16.7205 54.0387 13.6745 55.7969 11.4775 58.4107C9.28057 61.0245 8.07246 64.3275 8.06452 67.7419V72.5806H1.6129C1.18513 72.5806 0.774886 72.7506 0.472408 73.053C0.16993 73.3555 0 73.7658 0 74.1935V80.6452C0 81.0729 0.16993 81.4832 0.472408 81.7857C0.774886 82.0881 1.18513 82.2581 1.6129 82.2581H4.83871V98.3871C4.83871 98.8149 5.00864 99.2251 5.31112 99.5276C5.6136 99.8301 6.02384 100 6.45161 100H93.5484C93.9762 100 94.3864 99.8301 94.6889 99.5276C94.9914 99.2251 95.1613 98.8149 95.1613 98.3871V82.2581H98.3871C98.8149 82.2581 99.2251 82.0881 99.5276 81.7857C99.8301 81.4832 100 81.0729 100 80.6452V74.1935C100 73.7658 99.8301 73.3555 99.5276 73.053C99.2251 72.7506 98.8149 72.5806 98.3871 72.5806ZM38.7097 37.0968H39.5161C39.73 37.0968 39.9351 37.1817 40.0864 37.333C40.2376 37.4842 40.3226 37.6893 40.3226 37.9032V41.129C40.3226 41.3429 40.2376 41.548 40.0864 41.6993C39.9351 41.8505 39.73 41.9355 39.5161 41.9355H38.7097V37.0968ZM16.129 41.9355H15.3226C15.1087 41.9355 14.9036 41.8505 14.7523 41.6993C14.6011 41.548 14.5161 41.3429 14.5161 41.129V37.9032C14.5161 37.6893 14.6011 37.4842 14.7523 37.333C14.9036 37.1817 15.1087 37.0968 15.3226 37.0968H16.129V41.9355ZM17.7419 30.621V29.0323C17.7419 26.4656 18.7615 24.0042 20.5764 22.1893C22.3913 20.3744 24.8527 19.3548 27.4194 19.3548C29.986 19.3548 32.4475 20.3744 34.2623 22.1893C36.0772 24.0042 37.0968 26.4656 37.0968 29.0323V30.6452C35.3226 30.6452 32.8871 27.8669 31.9879 26.5242C31.8552 26.3258 31.6803 26.1593 31.4756 26.0366C31.2709 25.9139 31.0416 25.838 30.8041 25.8145C30.5666 25.791 30.3268 25.8204 30.102 25.9006C29.8773 25.9807 29.673 26.1097 29.504 26.2782C27.2399 28.5443 20.4899 30.1331 17.7419 30.621ZM19.3548 41.9355V33.5988C21.875 33.0887 27.1169 31.8387 30.3528 29.7056C31.4637 31.0423 33.3306 32.9254 35.4839 33.6089V41.9355C35.4816 43.6459 34.8012 45.2856 33.5918 46.495C32.3823 47.7044 30.7426 48.3848 29.0323 48.3871H25.8065C24.0961 48.3848 22.4564 47.7044 21.2469 46.495C20.0375 45.2856 19.3571 43.6459 19.3548 41.9355ZM24.1935 52.6875V51.4758C24.7264 51.5666 25.2659 51.6124 25.8065 51.6129H29.0323C29.5728 51.6124 30.1123 51.5666 30.6452 51.4758V52.6875L27.4194 56.9899L24.1935 52.6875ZM25.1069 59.2802L23.2056 60.5484L21.3165 56.7702L22.4052 55.6814L25.1069 59.2802ZM32.4335 55.6814L33.5222 56.7702L31.6331 60.5484L29.7319 59.2802L32.4335 55.6814ZM11.2903 67.7419C11.2959 65.5527 11.9353 63.4119 13.1314 61.5783C14.3274 59.7447 16.0289 58.2967 18.0302 57.4093L21.1371 63.625C21.2399 63.8294 21.3848 64.0097 21.5624 64.1539C21.74 64.2981 21.9462 64.403 22.1673 64.4617C22.3021 64.4979 22.4411 64.5162 22.5806 64.5161C22.8991 64.5157 23.2103 64.4218 23.4758 64.246L27.4194 61.6149L31.3629 64.246C31.6284 64.4218 31.9396 64.5157 32.2581 64.5161C32.3976 64.5162 32.5366 64.4979 32.6714 64.4617C32.8925 64.403 33.0987 64.2981 33.2763 64.1539C33.4539 64.0097 33.5988 63.8294 33.7016 63.625L36.8085 57.4093C38.8098 58.2967 40.5113 59.7447 41.7073 61.5783C42.9034 63.4119 43.5428 65.5527 43.5484 67.7419V72.5806H11.2903V67.7419ZM91.9355 96.7742H8.06452V82.2581H91.9355V96.7742ZM96.7742 79.0322H3.22581V75.8064H96.7742V79.0322Z" fill="white"/>
<path d="M95.1248 5.63911C95.1216 4.14348 94.5256 2.71012 93.4674 1.65312C92.4093 0.596107 90.9753 0.00165051 89.4797 0H50.8063C49.3096 0.0016543 47.8747 0.596942 46.8164 1.65526C45.7581 2.71357 45.1628 4.14848 45.1611 5.64516V31.4516C45.1628 32.9483 45.7581 34.3832 46.8164 35.4415C47.8747 36.4998 49.3096 37.0951 50.8063 37.0968H54.8386V45.1613C54.8383 45.4805 54.9328 45.7926 55.11 46.058C55.2872 46.3235 55.5392 46.5304 55.8341 46.6526C56.1289 46.7748 56.4534 46.8067 56.7665 46.7444C57.0795 46.6821 57.367 46.5282 57.5926 46.3024L66.7962 37.0968H89.5119C90.2538 37.0968 90.9883 36.9506 91.6736 36.6665C92.3589 36.3824 92.9815 35.966 93.5058 35.4412C94.0301 34.9164 94.4458 34.2933 94.7291 33.6077C95.0125 32.9221 95.1579 32.1874 95.1571 31.4456L95.1248 5.63911ZM91.2236 33.1613C90.9995 33.387 90.7327 33.5659 90.4389 33.6877C90.1451 33.8095 89.83 33.8718 89.5119 33.871H66.1289C65.701 33.8708 65.2906 34.0405 64.9877 34.3427L58.0644 41.2681V35.4839C58.0644 35.0561 57.8944 34.6459 57.592 34.3434C57.2895 34.0409 56.8792 33.871 56.4515 33.871H50.8063C50.1648 33.8704 49.5497 33.6154 49.0961 33.1618C48.6425 32.7082 48.3875 32.0931 48.3869 31.4516V5.64516C48.3875 5.00367 48.6425 4.38861 49.0961 3.93501C49.5497 3.48141 50.1648 3.22634 50.8063 3.22581H89.4797C90.1207 3.22687 90.7351 3.48183 91.1885 3.93488C91.642 4.38793 91.8974 5.00217 91.899 5.64315L91.9313 31.4496C91.9325 31.7676 91.8706 32.0826 91.7491 32.3764C91.6277 32.6702 91.449 32.937 91.2236 33.1613Z" fill="white"/>
<path d="M67.7418 32.2581H74.1934C74.6212 32.2581 75.0314 32.0881 75.3339 31.7857C75.6364 31.4832 75.8063 31.0729 75.8063 30.6452V17.7419C75.8063 17.3142 75.6364 16.9039 75.3339 16.6014C75.0314 16.299 74.6212 16.129 74.1934 16.129H67.7418C67.314 16.129 66.9038 16.299 66.6013 16.6014C66.2988 16.9039 66.1289 17.3142 66.1289 17.7419V30.6452C66.1289 31.0729 66.2988 31.4832 66.6013 31.7857C66.9038 32.0881 67.314 32.2581 67.7418 32.2581ZM69.3547 19.3548H72.5805V29.0323H69.3547V19.3548Z" fill="white"/>
<path d="M67.7418 14.5161H74.1934C74.6212 14.5161 75.0314 14.3462 75.3339 14.0437C75.6364 13.7412 75.8063 13.331 75.8063 12.9032V6.45162C75.8063 6.02385 75.6364 5.6136 75.3339 5.31112C75.0314 5.00865 74.6212 4.83871 74.1934 4.83871H67.7418C67.314 4.83871 66.9038 5.00865 66.6013 5.31112C66.2988 5.6136 66.1289 6.02385 66.1289 6.45162V12.9032C66.1289 13.331 66.2988 13.7412 66.6013 14.0437C66.9038 14.3462 67.314 14.5161 67.7418 14.5161ZM69.3547 8.06452H72.5805V11.2903H69.3547V8.06452Z" fill="white"/>
</svg>
