<?xml version="1.0" encoding="UTF-8"?>
<svg xmlns="http://www.w3.org/2000/svg" width="512" height="512" viewBox="0 0 512 512"><g><circle cx="120" cy="192" r="8"/><circle cx="168" cy="192" r="8"/><path d="M496,368H240V344a72.193,72.193,0,0,0-59.61-70.92L176,268.69V257.54A48.234,48.234,0,0,0,197.25,232H204a20.02,20.02,0,0,0,20-20V196a20.035,20.035,0,0,0-16-19.6V152a64,64,0,0,0-128,0v24.4A20.035,20.035,0,0,0,64,196v16a20.02,20.02,0,0,0,20,20h6.75A48.234,48.234,0,0,0,112,257.54v11.15l-4.39,4.39A72.193,72.193,0,0,0,48,344v24H16a8,8,0,0,0-8,8v32a8,8,0,0,0,8,8H32v80a8,8,0,0,0,8,8H472a8,8,0,0,0,8-8V416h16a8,8,0,0,0,8-8V376A8,8,0,0,0,496,368ZM200,192h4a4,4,0,0,1,4,4v16a4,4,0,0,1-4,4h-4ZM88,216H84a4,4,0,0,1-4-4V196a4,4,0,0,1,4-4h4Zm8-56.12V152a48,48,0,0,1,96,0v8c-8.8,0-20.88-13.78-25.34-20.44a8.014,8.014,0,0,0-12.32-1.22C143.11,149.58,109.63,157.46,96,159.88ZM104,216V174.65c12.5-2.53,38.5-8.73,54.55-19.31,5.51,6.63,14.77,15.97,25.45,19.36V216a32.042,32.042,0,0,1-32,32H136A32.042,32.042,0,0,1,104,216Zm24,53.33v-6.01a47.891,47.891,0,0,0,8,.68h16a47.891,47.891,0,0,0,8-.68v6.01l-16,21.34Zm4.53,32.7-9.43,6.29-9.37-18.74,5.4-5.4Zm36.34-17.85,5.4,5.4-9.37,18.74-9.43-6.29ZM64,344a56.218,56.218,0,0,1,33.43-51.25l15.41,30.83a8.022,8.022,0,0,0,5.11,4.15A7.9,7.9,0,0,0,120,328a8.058,8.058,0,0,0,4.44-1.34L144,313.61l19.56,13.05A8.058,8.058,0,0,0,168,328a7.9,7.9,0,0,0,2.05-.27,8.022,8.022,0,0,0,5.11-4.15l15.41-30.83A56.218,56.218,0,0,1,224,344v24H64ZM464,488H48V416H464Zm24-88H24V384H488Z"/><path d="M479.82,35.97A28.031,28.031,0,0,0,451.82,8H260a28.031,28.031,0,0,0-28,28V164a28.031,28.031,0,0,0,28,28h20v40a8,8,0,0,0,13.66,5.66L339.31,192H451.98a28,28,0,0,0,28-28.03ZM460.47,172.48a11.921,11.921,0,0,1-8.49,3.52H336a8.008,8.008,0,0,0-5.66,2.34L296,212.69V184a8,8,0,0,0-8-8H260a12.01,12.01,0,0,1-12-12V36a12.01,12.01,0,0,1,12-12H451.82a12.02,12.02,0,0,1,12,11.99l.16,128A11.911,11.911,0,0,1,460.47,172.48Z"/><path d="M344,168h32a8,8,0,0,0,8-8V96a8,8,0,0,0-8-8H344a8,8,0,0,0-8,8v64A8,8,0,0,0,344,168Zm8-64h16v48H352Z"/><path d="M344,80h32a8,8,0,0,0,8-8V40a8,8,0,0,0-8-8H344a8,8,0,0,0-8,8V72A8,8,0,0,0,344,80Zm8-32h16V64H352Z"/></g></svg>
