<svg width="100" height="100" viewBox="0 0 100 100" fill="none" xmlns="http://www.w3.org/2000/svg">
<path d="M19.9223 100V77.9297H11.7194C5.25668 77.9297 0 72.6862 0 66.2402V11.6895C0 5.24353 5.25668 0 11.7194 0H88.2818C94.7433 0 100 5.24353 100 11.6895V66.2402C100 72.6862 94.7433 77.9297 88.2818 77.9297H42.048L19.9223 100ZM11.7194 7.79297C9.56434 7.79297 7.81252 9.54041 7.81252 11.6895V66.2402C7.81252 68.3887 9.56434 70.1361 11.7194 70.1361H27.7342V81.1859L38.8117 70.1361H88.2818C90.4357 70.1361 92.1881 68.3887 92.1881 66.2402V11.6895C92.1881 9.54041 90.4357 7.79297 88.2818 7.79297H11.7194ZM53.9063 53.5767H46.0937V61.3696H53.9063V53.5767ZM53.9063 43.0591C53.9063 42.8381 54.0329 42.6294 54.2012 42.5726C59.765 40.7233 63.4945 35.3442 63.2717 29.491C63.0105 22.616 57.4062 17.0258 50.5134 16.7651C46.8678 16.626 43.4137 17.9382 40.7899 20.4584C38.165 22.9791 36.7191 26.3684 36.7191 30.0024H44.5316C44.5316 28.5065 45.127 27.1106 46.2082 26.0718C47.2881 25.0354 48.712 24.4946 50.2172 24.552C53.0521 24.6588 55.357 26.9586 55.4647 29.7864C55.5565 32.2009 54.0219 34.4183 51.7316 35.1801C48.3595 36.3007 46.0937 39.4678 46.0937 43.0591V47.7319H53.9063V43.0591Z" fill="white"/>
</svg>
