<?xml version="1.0" encoding="iso-8859-1"?>
<!-- Generator: Adobe Illustrator 19.0.0, SVG Export Plug-In . SVG Version: 6.00 Build 0)  -->
<svg version="1.1" id="Capa_1" xmlns="http://www.w3.org/2000/svg" xmlns:xlink="http://www.w3.org/1999/xlink" x="0px" y="0px"
	 viewBox="0 0 512 512" style="enable-background:new 0 0 512 512;" xml:space="preserve">
<g>
	<g>
		<path d="M268.74,264.38c-2.329-3.426-6.994-4.315-10.419-1.986c-32.61,22.166-73.124,22.166-105.733,0
			c-3.425-2.329-8.091-1.439-10.419,1.986c-2.328,3.426-1.439,8.09,1.987,10.419c18.386,12.498,39.583,19.104,61.299,19.104
			c21.716,0,42.913-6.606,61.299-19.104C270.18,272.47,271.069,267.806,268.74,264.38z"/>
	</g>
</g>
<g>
	<g>
		<path d="M148.373,153.747c-4.142,0-7.5,3.358-7.5,7.5v5.793c0,4.142,3.357,7.5,7.5,7.5c4.142,0,7.5-3.358,7.5-7.5v-5.793
			C155.873,157.105,152.514,153.747,148.373,153.747z"/>
	</g>
</g>
<g>
	<g>
		<path d="M261.993,153.747c-4.142,0-7.5,3.358-7.5,7.5v5.793c0,4.142,3.358,7.5,7.5,7.5c4.142,0,7.5-3.358,7.5-7.5v-5.793
			C269.493,157.105,266.135,153.747,261.993,153.747z"/>
	</g>
</g>
<g>
	<g>
		<path d="M476.691,303.52h-57.99c-7.46,0-13.53-6.074-13.53-13.54v-49.09c0-7.621-1.894-14.806-5.221-21.122
			c0.953-7.829,1.461-15.82,1.461-23.808c0-38.069-10.936-74.991-31.625-106.772c-2.259-3.471-6.906-4.452-10.377-2.194
			c-3.471,2.26-4.454,6.906-2.194,10.377c19.1,29.34,29.196,63.432,29.196,98.588c0,2.676-0.08,5.35-0.197,8.02
			c-7.472-5.385-16.63-8.57-26.523-8.57c-5.146,0-9.99,2.001-13.666,5.659c-3.633,3.65-5.634,8.491-5.634,13.631v50.11
			c0,23.116-6.58,54.527-61.353,66.12v-4.192c0-4.142-3.358-7.5-7.5-7.5H197.98c-4.142,0-7.5,3.358-7.5,7.5v9.682h-27.919
			c-4.142,0-7.5,3.358-7.5,7.5v25.884c-77.338-22.239-130.56-92.411-130.56-173.843C24.501,96.178,105.675,15,205.451,15
			c50.794,0,99.565,21.553,133.806,59.131c2.791,3.063,7.535,3.282,10.595,0.493c3.062-2.79,3.282-7.534,0.493-10.595
			C313.268,23.337,260.457,0,205.451,0C97.404,0,9.501,87.907,9.501,195.96c0,44.506,15.325,88.08,43.152,122.694
			c26.153,32.532,62.341,56.051,102.408,66.704v44.592c0,4.142,3.358,7.5,7.5,7.5c4.142,0,7.5-3.358,7.5-7.5v-78.53h20.419v128.4
			h-20.419v-19.56c0-4.142-3.358-7.5-7.5-7.5c-4.142,0-7.5,3.358-7.5,7.5v27.06c0,4.142,3.358,7.5,7.5,7.5h27.919v9.68
			c0,4.142,3.358,7.5,7.5,7.5h73.558c4.142,0,7.5-3.358,7.5-7.5v-5.89h38.793c4.142,0,7.5-3.358,7.5-7.5c0-4.142-3.358-7.5-7.5-7.5
			h-38.793V346.22c50.664-9.828,76.353-37.186,76.353-81.41V214.7c0-1.146,0.45-2.229,1.24-3.024c0.82-0.816,1.907-1.266,3.06-1.266
			c16.807,0,30.48,13.673,30.48,30.48v49.09c0,15.737,12.799,28.54,28.53,28.54h57.99c5.96,0,10.81,4.849,10.81,10.81v12.7
			c0,5.961-4.85,10.81-10.81,10.81h-10.322c-0.023,0-0.045-0.003-0.068-0.003h-15.527c-4.142,0-7.5,3.358-7.5,7.5
			c0,4.142,3.358,7.5,7.5,7.5h15.127c4.866,0.409,8.66,4.516,8.66,9.414v14.19c0,5.227-4.249,9.48-9.47,9.48h-13.353
			c-0.029,0-0.058-0.004-0.087-0.004h-15.526c-4.142,0-7.5,3.358-7.5,7.5c0,4.142,3.358,7.5,7.5,7.5h14.319
			c0.029,0,0.058,0.004,0.087,0.004c4.317,0,7.83,3.513,7.83,7.83v12.23c0,4.317-3.513,7.83-7.83,7.83h-11.525
			c-0.084-0.003-0.167-0.013-0.252-0.013h-15.527c-4.142,0-7.5,3.358-7.5,7.5c0,4.142,3.358,7.5,7.5,7.5h12.942
			c0.084,0.003,0.167,0.013,0.252,0.013c4.317,0,7.83,3.517,7.83,7.84v9.13c0,4.317-3.513,7.83-7.83,7.83h-88.25
			c-4.142,0-7.5,3.358-7.5,7.5c0,4.142,3.358,7.5,7.5,7.5h88.25c12.588,0,22.83-10.242,22.83-22.83v-9.13
			c0-3.159-0.644-6.17-1.809-8.909c9.221-2.935,15.918-11.58,15.918-21.761v-12.23c0-3.085-0.615-6.03-1.73-8.718
			c10.329-2.869,17.93-12.359,17.93-23.592v-14.19c0-4.11-1.033-8.006-2.858-11.431c9.273-3.917,15.798-13.106,15.798-23.789v-12.7
			C502.501,315.098,490.922,303.52,476.691,303.52z M264.038,497H205.48v-9.67c0-0.003,0-0.006,0-0.01c0-0.004,0-0.006,0-0.01
			V343.93c0-0.003,0-0.006,0-0.01c0-0.004,0-0.006,0-0.01v-9.672h58.558V497z"/>
	</g>
</g>
<g>
	<g>
		<path d="M234.759,475.577c-4.142,0-7.5,3.358-7.5,7.5v1.691c0,4.142,3.358,7.5,7.5,7.5c4.142,0,7.5-3.358,7.5-7.5v-1.691
			C242.259,478.935,238.901,475.577,234.759,475.577z"/>
	</g>
</g>
<g>
	<g>
		<path d="M234.759,456.445c-4.142,0-7.5,3.358-7.5,7.5v1.691c0,4.142,3.358,7.5,7.5,7.5c4.142,0,7.5-3.358,7.5-7.5v-1.691
			C242.259,459.803,238.901,456.445,234.759,456.445z"/>
	</g>
</g>
<g>
</g>
<g>
</g>
<g>
</g>
<g>
</g>
<g>
</g>
<g>
</g>
<g>
</g>
<g>
</g>
<g>
</g>
<g>
</g>
<g>
</g>
<g>
</g>
<g>
</g>
<g>
</g>
<g>
</g>
</svg>
