<?xml version="1.0" encoding="iso-8859-1"?>
<!-- Generator: Adobe Illustrator 19.0.0, SVG Export Plug-In . SVG Version: 6.00 Build 0)  -->
<svg version="1.1" id="Capa_1" xmlns="http://www.w3.org/2000/svg" xmlns:xlink="http://www.w3.org/1999/xlink" x="0px" y="0px"
	 viewBox="0 0 512 512" style="enable-background:new 0 0 512 512;" xml:space="preserve">
<g>
	<g>
		<path d="M252.457,377.108c-18.051-12.27-38.862-18.756-60.183-18.756c-21.321,0-42.132,6.486-60.183,18.756
			c-3.425,2.328-4.315,6.992-1.986,10.418c1.451,2.135,3.809,3.285,6.209,3.285c1.452,0,2.918-0.421,4.209-1.298
			c31.921-21.697,71.58-21.697,103.501,0c3.426,2.328,8.091,1.439,10.419-1.986C256.772,384.101,255.882,379.437,252.457,377.108z"
			/>
	</g>
</g>
<g>
	<g>
		<path d="M136.308,253.101c-4.142,0-7.5,3.358-7.5,7.5v5.68c0,4.142,3.358,7.5,7.5,7.5c4.142,0,7.5-3.358,7.5-7.5v-5.68
			C143.808,256.459,140.45,253.101,136.308,253.101z"/>
	</g>
</g>
<g>
	<g>
		<path d="M247.707,253.101c-4.142,0-7.5,3.358-7.5,7.5v5.68c0,4.142,3.358,7.5,7.5,7.5c4.142,0,7.5-3.358,7.5-7.5v-5.68
			C255.207,256.459,251.849,253.101,247.707,253.101z"/>
	</g>
</g>
<g>
	<g>
		<path d="M504.5,94.16c4.142,0,7.5-3.358,7.5-7.5V49.69c0-4.142-3.358-7.5-7.5-7.5h-27.23v-9.341c0-4.142-3.358-7.5-7.5-7.5h-72.12
			c-4.142,0-7.5,3.358-7.5,7.5v5.621h-25.98c-4.142,0-7.5,3.358-7.5,7.5c0,4.142,3.358,7.5,7.5,7.5h25.98v134.453
			c-49.672,9.663-74.86,36.522-74.86,79.928v49.13c0,1.089-0.419,2.106-1.194,2.877c-0.446,0.445-1.412,1.193-2.876,1.193
			c-16.393,0-29.73-13.341-29.73-29.74v-48.14c0-15.505-12.619-28.12-28.13-28.12H196.5c-5.762,0-10.45-4.688-10.45-10.45v-12.45
			c0-5.768,4.688-10.46,10.45-10.46h10.117c0.026,0,0.051,0.004,0.077,0.004h15.223c4.142,0,7.5-3.358,7.5-7.5
			c0-4.142-3.358-7.5-7.5-7.5h-14.821c-4.695-0.396-8.356-4.359-8.356-9.084V143.7c0-5.045,4.1-9.15,9.14-9.15h13.081
			c0.033,0,0.064,0.005,0.097,0.005h15.223c4.142,0,7.5-3.358,7.5-7.5c0-4.142-3.358-7.5-7.5-7.5h-14.024
			c-0.033,0-0.064-0.005-0.097-0.005c-4.158,0-7.54-3.378-7.54-7.53v-11.99c0-4.152,3.382-7.53,7.54-7.53h11.32
			c0.075,0.002,0.147,0.011,0.223,0.011h15.224c4.142,0,7.5-3.358,7.5-7.5c0-4.142-3.358-7.5-7.5-7.5h-12.714
			c-0.075-0.002-0.147-0.011-0.223-0.011c-4.152,0-7.53-3.382-7.53-7.54v-8.95c0-4.158,3.378-7.54,7.53-7.54h97.84
			c4.142,0,7.5-3.358,7.5-7.5c0-4.142-3.358-7.5-7.5-7.5h-97.84c-12.423,0-22.53,10.111-22.53,22.54v8.95
			c0,3.061,0.613,5.981,1.723,8.645c-9.024,2.943-15.563,11.436-15.563,21.425v2.473c-2.455-0.093-4.91-0.143-7.35-0.143
			C86.252,102.361,0,188.617,0,294.64c0,47.642,17.557,93.349,49.437,128.703c31.642,35.089,74.817,57.248,121.572,62.393
			c0.279,0.031,0.555,0.045,0.83,0.045c3.774,0,7.023-2.842,7.446-6.68c0.453-4.117-2.518-7.822-6.635-8.275
			C82.775,460.936,15,385.193,15,294.64c0-97.752,79.523-177.28,177.27-177.28c2.676,0,5.371,0.068,8.063,0.188
			c0.254,0.999,0.55,1.981,0.933,2.923c-10.105,2.884-17.525,12.206-17.525,23.229v13.91c0,3.997,0.991,7.791,2.745,11.134
			c-9.068,3.898-15.435,12.922-15.435,23.406v12.45c0,14.033,11.417,25.45,25.45,25.45h56.86c7.24,0,13.13,5.886,13.13,13.12v48.14
			c0,24.669,20.066,44.74,44.73,44.74c5.093,0,9.881-1.984,13.47-5.574c3.611-3.594,5.6-8.387,5.6-13.496v-49.13
			c0-15.505,3.031-34.824,22.214-49.092c11.16,23.553,17.046,49.611,17.046,75.882c0,94.301-73.696,172.058-167.775,177.021
			c-4.136,0.218-7.313,3.749-7.095,7.885c0.211,4.002,3.522,7.105,7.483,7.105c0.133,0,0.267-0.003,0.401-0.01
			c102.047-5.383,181.985-89.72,181.985-192c0-28.932-6.583-57.637-19.061-83.504c6.837-3.166,14.977-5.86,24.661-7.92v3.92
			c0,4.142,3.358,7.5,7.5,7.5h72.12c4.142,0,7.5-3.358,7.5-7.5v-9.345h27.23c4.142,0,7.5-3.358,7.5-7.5v-73.3
			c0-4.142-3.358-7.5-7.5-7.5c-4.142,0-7.5,3.358-7.5,7.5v65.8h-19.73v-125.6H497v29.47C497,90.802,500.358,94.16,504.5,94.16z
			 M462.27,199.636h-57.12V40.349h57.12V199.636z"/>
	</g>
</g>
<g>
	<g>
		<path d="M433.709,44.696c-4.142,0-7.5,3.358-7.5,7.5v1.658c0,4.142,3.358,7.5,7.5,7.5c4.142,0,7.5-3.358,7.5-7.5v-1.658
			C441.209,48.054,437.851,44.696,433.709,44.696z"/>
	</g>
</g>
<g>
	<g>
		<path d="M433.709,63.454c-4.142,0-7.5,3.358-7.5,7.5v1.658c0,4.142,3.358,7.5,7.5,7.5c4.142,0,7.5-3.358,7.5-7.5v-1.658
			C441.209,66.812,437.851,63.454,433.709,63.454z"/>
	</g>
</g>
<g>
</g>
<g>
</g>
<g>
</g>
<g>
</g>
<g>
</g>
<g>
</g>
<g>
</g>
<g>
</g>
<g>
</g>
<g>
</g>
<g>
</g>
<g>
</g>
<g>
</g>
<g>
</g>
<g>
</g>
</svg>
